PathFileType	4	(X/Y/Z)	24_2_94_p0_0-269.trc
DataRate	CameraRate	NumFrames	NumMarkers	Units	OrigDataRate	OrigDataStartFrame	OrigNumFrames
59.0	59.0	7	27	m	59.0	101	270
Frame#	Time	RHip			RKnee			RAnkle			RBigToe			RSmallToe			RHeel			LHip			LKnee			LAnkle			LBigToe			LSmallToe			LHeel			Neck			Head			Nose			RShoulder			RElbow			RWrist			RThumb			RIndex			RPinky			LShoulder			LElbow			LWrist			LThumb			LIndex			LPinky			
		X1	Y1	Z1	X2	Y2	Z2	X3	Y3	Z3	X4	Y4	Z4	X5	Y5	Z5	X6	Y6	Z6	X7	Y7	Z7	X8	Y8	Z8	X9	Y9	Z9	X10	Y10	Z10	X11	Y11	Z11	X12	Y12	Z12	X13	Y13	Z13	X14	Y14	Z14	X15	Y15	Z15	X16	Y16	Z16	X17	Y17	Z17	X18	Y18	Z18	X19	Y19	Z19	X20	Y20	Z20	X21	Y21	Z21	X22	Y22	Z22	X23	Y23	Z23	X24	Y24	Z24	X25	Y25	Z25	X26	Y26	Z26	X27	Y27	Z27	
101	1.7118644067796611	0.45901333835280456	0.5052015138178009	0.8448222845959209	0.4585817972987992	0.6002179105351564	1.2900349303709018	0.4326727979910074	0.6953334351139375	1.6816464668809163	0.4196796294385026	0.5309077104916365	1.7071651415520694	0.4824332105262555	0.5208406888883037	1.6833969472831678	0.4003865684088152	0.7638461455937493	1.7403067005381885	0.27134920251442923	0.458266488799551	0.8493792146329454	0.21492795113615018	0.582566858821277	1.3067930860479617	0.2117210672180139	0.6677836581388122	1.696759162521191	0.24262821415872898	0.4661244020320464	1.6780070142104124	0.18360683566256134	0.5206922238721301	1.69355217888155	0.21907823383255395	0.7148666790010441	1.7365918006145415	0.3568508160625659	0.406021993155855	0.34938009716799373	0.35485489931690156	0.36327804161271615	0.11352261086840018	0.36047918779149696	0.28370731075975053	0.2305771475155932	0.5062121748698092	0.4200212296282423	0.42966399633951863	0.5532437988012935	0.5036101989291949	0.689864611054809	0.46366644533166185	0.38806176015456806	0.8624255563517559	0.3742052450617579	0.30692561965064963	0.9220526869926424	0.36419440478528015	0.3429527013845147	0.9524784506553171	0.3836350957914162	0.3588125011674061	0.9519349124672957	0.20170343039274488	0.42636340541513074	0.4471842108750974	0.17564129631706768	0.4118880819834266	0.6703083268649319	0.28896032113677556	0.3489161597797293	0.8497604542115312	0.3594921935764934	0.313542152604187	0.8882444150144365	0.37539404129886095	0.32765113205361573	0.9347118680090677	0.35189746577792613	0.3667655748656141	0.9517843539978526
102	1.728813559322034	0.45904484250673827	0.5050636278551339	0.8448097348025934	0.45857368982689783	0.6001837404192923	1.2900619137037073	0.4326775738376886	0.6953711326843806	1.6815435754297543	0.41711047900381687	0.515022866534477	1.6959910793725732	0.4823584439921048	0.520586970775429	1.6832211640608752	0.4004666587549519	0.7642438587993787	1.7402283291177134	0.2713803069708436	0.45826487883861516	0.8493158503566446	0.2149489172906832	0.5824984593203669	1.3066431270812549	0.21108975486994846	0.6648969081386096	1.6909164838906867	0.2426995609460924	0.4661826861390257	1.6778823363637336	0.18373828012129098	0.5204497970514965	1.6932831719470545	0.21896287075504045	0.7148906757768414	1.736703471021552	0.3568671858099646	0.40598440051691254	0.3493692744978041	0.3549090811611222	0.36308521298306634	0.11353909097626268	0.3604361276432404	0.2836051351394452	0.23063644377108816	0.5012274004095452	0.43312563811891863	0.4338963113495052	0.5486335892562529	0.517438564169048	0.6921757410310194	0.46370182381567465	0.3880028504823742	0.8623884061585719	0.37419714558597955	0.30673335172342375	0.9219938916139987	0.3642687280253614	0.34300669332120776	0.9525740696410133	0.3836815908025099	0.35901208666064055	0.9520060049309212	0.20176294656183263	0.42647692608821963	0.4472640955895412	0.17578067707950934	0.4118210210296254	0.6703969258653768	0.2889300231622269	0.3490768862409723	0.8498189304019699	0.3598080063225918	0.31571240826785923	0.8927528347456399	0.37520416609822815	0.32809383550179355	0.934915887541656	0.351949367480177	0.3668063296564978	0.9518479084947435
103	1.7457627118644068	0.45901481141575223	0.5051433766570912	0.8446840129101902	0.45857002957504356	0.6001585360197877	1.2900611415683758	0.43267192871977556	0.6951254195716482	1.6815265099920536	0.4170821412912093	0.5151458398527134	1.696049432911616	0.48235574901724076	0.5204968043190636	1.6831761610545737	0.40042604000558585	0.7636961935570123	1.7401343577332165	0.27147798455809113	0.458414980828237	0.8491201748882732	0.21495184481238652	0.5825962972103387	1.3066790653314346	0.21107445478463605	0.6649590233461046	1.6909071256323671	0.24268445907735137	0.466112154913115	1.6780787866359546	0.18361818482034128	0.5207064273816143	1.6936280135863795	0.218948202246468	0.7148448434175271	1.7366098416978089	0.35684857574349177	0.40598042831359243	0.3494211693854263	0.35491286964744256	0.36315886075084547	0.11352914700252191	0.36030905054907636	0.28370663134611834	0.2305659264535186	0.5011887270835506	0.4332866304432225	0.43395930117249615	0.5486341951183424	0.5176064364326499	0.6922162967577872	0.4637166729194897	0.3882820267855343	0.8624910044539527	0.3741718654774063	0.3069819813898807	0.9220581176702485	0.3642439825120931	0.3429443076790691	0.9525748920506116	0.38344008444972394	0.35914707854490924	0.9519781270538217	0.2018215777608952	0.4262431480552085	0.4472500465776545	0.17544287611397544	0.41236083414090663	0.6667957451935079	0.28884449985575456	0.34903574304727775	0.8497371115211816	0.3598447706760241	0.3154813671513959	0.8925446878896292	0.37287446980026595	0.3164187632523183	0.9324349869442403	0.34995236808238633	0.3551607548586921	0.9493240034245629
104	1.7627118644067796	0.4589952347946817	0.5052978497121065	0.8444258447137307	0.45851334007882233	0.6003650412597056	1.2900747729150694	0.4327329786371337	0.695298334313882	1.6816179298251253	0.4177625643670507	0.5176643082637573	1.701143942209107	0.4823777650208062	0.5206250626173128	1.6832673646266667	0.4005436159482012	0.7642296480869112	1.7402914513524292	0.2716071352161442	0.45841454837342177	0.8489353600010301	0.21444937567502279	0.5837610009983878	1.3028747694137237	0.21174099352009182	0.6677849902006474	1.6968516873324169	0.24272516789210863	0.4660025665054703	1.677918289265647	0.18439412799510005	0.5188075646965218	1.6969105271751528	0.21890507445452917	0.7149003567220357	1.736800659470774	0.35722431445142433	0.4054288560299637	0.3527625219858284	0.3549248955135285	0.36291310612783806	0.11364034346382264	0.36354139542507513	0.2607532494114271	0.23415903733880566	0.5013211246448315	0.4333970137932556	0.4340380639196108	0.5485841770246278	0.5177748092956057	0.6922586929163219	0.463726797781008	0.38823533177945135	0.8624850305833056	0.3744822355249631	0.30632822002004345	0.9246067927935232	0.3643105537505759	0.3429480726054859	0.9526515389024283	0.38368375117250114	0.359260453073101	0.952207733009223	0.20212656444051916	0.42584289017100097	0.45120664406665656	0.17583510459255672	0.41172407523727755	0.670385544299806	0.28919521857040853	0.3491055642602158	0.8499926915761562	0.3599816974722327	0.31514426788951583	0.8928271133023988	0.3731246779622492	0.3163035218659945	0.9325662892788698	0.3500954545172004	0.3553427256071845	0.9495376342421068
105	1.7796610169491525	0.4589682417572132	0.5054190197921606	0.8442974098719974	0.45844850148547195	0.6004556544201938	1.2901956991741292	0.43268518487169455	0.6952293120655655	1.6816187850875648	0.41710149398924323	0.5151360365778563	1.6959607583740277	0.4823952067858608	0.5206664416397161	1.6832639253959474	0.4005076337769781	0.7642115858504688	1.7402142637481288	0.27124580493061334	0.45925314520577093	0.8454237615237312	0.21446550413517537	0.5836359401344146	1.302638371976515	0.21174468222174636	0.6676530414749708	1.6967558559391196	0.24274830929203084	0.4659422278992096	1.6777755731466641	0.19108328546488446	0.5048457422128768	1.6897610258003404	0.21891370930442297	0.714697193897223	1.7366796708490713	0.35720797803645243	0.40542213931556076	0.35282134250470343	0.3550191433459999	0.3628745541843814	0.1136444541485539	0.36386678780933646	0.2609470439676815	0.23433641928365537	0.5009201635503785	0.4337898354325795	0.43734733736113107	0.5489509311840163	0.5200193137774685	0.696397188136152	0.4636471782010741	0.38835669764762165	0.8625704700978395	0.3745829855565974	0.30631731948081703	0.9246190807210256	0.36423383317385993	0.3427790851802083	0.9526334776954992	0.3841326081991408	0.3612765662326809	0.9562998499359445	0.20212685262112529	0.4258936371295516	0.4512283344725812	0.1755170313700138	0.40993758035850736	0.6665523929236943	0.28946428545768293	0.3491896612293367	0.8501815774876962	0.3595112142707068	0.3131639281775091	0.8884911483306284	0.3697618653005091	0.31550611375622234	0.9326217567291977	0.35052448357495364	0.35423892334805995	0.9525806200903233
106	1.7966101694915255	0.45853028351433966	0.5033473704920515	0.8398718099696063	0.45855599873464653	0.6003783946477739	1.2901446954411726	0.43274483547147674	0.6953045978541919	1.681697487964086	0.417034518361422	0.5151958524661995	1.6961377022278283	0.48229787351121567	0.5207812505578048	1.6833533806068242	0.4006464896686328	0.764457891379106	1.740376600812249	0.2733639630866413	0.4711215685464881	0.8510198529389523	0.21445086182145343	0.5839005479045309	1.3027863425835395	0.21170533573444875	0.6677971683634116	1.696849437773799	0.24267288959063826	0.4659863231258253	1.6780522217853595	0.1843488035071387	0.5189414252140893	1.6971711661364548	0.21888338832348617	0.7149656320118942	1.7368667374715694	0.3572240362532865	0.40539756215690864	0.35288357457762826	0.3550725129464532	0.36431149295403936	0.11646051340576753	0.3691029618238404	0.2494352859189988	0.24078217951654432	0.5012296079836596	0.4334258406141949	0.43406379152997615	0.5489872341379047	0.5199762122108077	0.6963698529894499	0.46364529691735	0.3886758054045382	0.8626480930536525	0.37743155366137093	0.3067112576514363	0.9244198928520442	0.36411198882191687	0.3428311128964236	0.9526843904243151	0.37870196301631365	0.3749105607317288	0.9600751576048354	0.19639533406504986	0.4384428771021412	0.452255268461294	0.17537322531589375	0.41012416757679326	0.6664836762008296	0.28950553482945335	0.34935092299481624	0.8502612891798185	0.35990995967010364	0.3150647626663673	0.892973331938274	0.3732381675039091	0.3160948065796331	0.9326172226436867	0.3503197827810154	0.3543037705525535	0.9525522939785619
107	1.8135593220338984	0.45848690723627455	0.5034061302680022	0.8398450125036295	0.4586440738704717	0.6000113505197294	1.289847513401822	0.43268632454936823	0.6955223772749644	1.6817683503115095	0.4143262726513076	0.5461220553574778	1.7150311316340536	0.47951500990034995	0.5492296524454208	1.6969013822701433	0.40066082454107066	0.7645219579737458	1.7404470825180969	0.273302602138155	0.4711418823094646	0.8510067071508919	0.214425795485635	0.5839377515674604	1.3027953896292417	0.21166594151535317	0.6679319071686091	1.696901527338	0.24259691727303387	0.46623368156171363	1.6780618047863218	0.1842186699213095	0.5191164545138534	1.69706924569634	0.21883380357414817	0.7147844421712364	1.7366939558863486	0.35702631043866073	0.4057651826408993	0.3562280992577675	0.3551231022698451	0.3643388974485848	0.11654111184986185	0.36921808517147403	0.24920670518632304	0.24094113154412475	0.5014403670907015	0.43510472006462175	0.4376889474744966	0.549103773279701	0.5199466242875798	0.696368543424963	0.46378245396047113	0.3884891418625199	0.8626714875469981	0.36838948895165685	0.31834196789596	0.9276162231967953	0.35843235711630284	0.35494197228423335	0.9558718026894916	0.37858969146592764	0.37442130221831227	0.95995741913721	0.19755900242937655	0.4509905858328418	0.4528993060975735	0.17515719121440307	0.41033160957234854	0.6664094840189263	0.28990601470599603	0.3485981767161897	0.8538969370842987	0.3575184302162035	0.3266599752039528	0.8911312651963434	0.367819279850363	0.3284083558367903	0.9360235215247619	0.3503394759699392	0.35466918013658744	0.9526655302927923
